Fraunces-BlackOpMaxGoofyMax.ufo
<glyph name="quotesingle" format="2">
  <advance width="498"/>
  <unicode hex="0027"/>
  <outline>
    <contour>
      <point x="218" y="1114" type="curve" smooth="yes"/>
      <point x="241" y="1114" type="line" smooth="yes"/>
      <point x="275" y="1114"/>
      <point x="286" y="1098"/>
      <point x="286" y="1073" type="curve" smooth="yes"/>
      <point x="286" y="1019"/>
      <point x="228" y="955"/>
      <point x="115" y="911" type="curve" smooth="yes"/>
      <point x="55" y="887"/>
      <point x="35" y="860"/>
      <point x="41" y="817" type="curve" smooth="yes"/>
      <point x="49" y="769"/>
      <point x="92" y="735"/>
      <point x="160" y="758" type="curve" smooth="yes"/>
      <point x="360" y="827"/>
      <point x="485" y="996"/>
      <point x="485" y="1220" type="curve" smooth="yes"/>
      <point x="485" y="1399"/>
      <point x="388" y="1495"/>
      <point x="251" y="1495" type="curve" smooth="yes"/>
      <point x="133" y="1495"/>
      <point x="37" y="1412"/>
      <point x="37" y="1290" type="curve" smooth="yes"/>
      <point x="37" y="1181"/>
      <point x="100" y="1114"/>
    </contour>
  </outline>
</glyph>
<glyph name="parenleft" format="2">
  <advance width="717"/>
  <unicode hex="0028"/>
  <outline>
    <contour>
      <point x="125" y="609" type="curve" smooth="yes"/>
      <point x="125" y="167"/>
      <point x="346" y="-155"/>
      <point x="588" y="-247" type="curve" smooth="yes"/>
      <point x="664" y="-274"/>
      <point x="714" y="-265"/>
      <point x="729" y="-219" type="curve" smooth="yes"/>
      <point x="738" y="-190"/>
      <point x="720" y="-158"/>
      <point x="684" y="-118" type="curve" smooth="yes"/>
      <point x="542" y="48"/>
      <point x="446" y="319"/>
      <point x="446" y="609" type="curve" smooth="yes"/>
      <point x="446" y="900"/>
      <point x="542" y="1171"/>
      <point x="684" y="1336" type="curve" smooth="yes"/>
      <point x="720" y="1376"/>
      <point x="738" y="1408"/>
      <point x="729" y="1438" type="curve" smooth="yes"/>
      <point x="714" y="1483"/>
      <point x="664" y="1493"/>
      <point x="588" y="1466" type="curve" smooth="yes"/>
      <point x="346" y="1374"/>
      <point x="125" y="1052"/>
    </contour>
  </outline>
</glyph>
<glyph name="hyphen" format="2">
  <advance width="690"/>
  <unicode hex="002D"/>
  <outline>
    <contour>
      <point x="597" y="659" type="curve" smooth="yes"/>
      <point x="160" y="659" type="line" smooth="yes"/>
      <point x="113" y="659"/>
      <point x="88" y="640"/>
      <point x="67" y="579" type="curve" smooth="yes"/>
      <point x="39" y="496" type="line" smooth="yes"/>
      <point x="16" y="431"/>
      <point x="36" y="397"/>
      <point x="93" y="397" type="curve" smooth="yes"/>
      <point x="530" y="397" type="line" smooth="yes"/>
      <point x="576" y="397"/>
      <point x="602" y="416"/>
      <point x="623" y="477" type="curve" smooth="yes"/>
      <point x="651" y="560" type="line" smooth="yes"/>
      <point x="673" y="625"/>
      <point x="654" y="659"/>
    </contour>
  </outline>
</glyph>
<glyph name="one" format="2">
  <advance width="922"/>
  <unicode hex="0031"/>
  <outline>
    <contour>
      <point x="151" y="1123" type="line" smooth="yes"/>
      <point x="78" y="1123"/>
      <point x="45" y="1168"/>
      <point x="45" y="1234" type="curve" smooth="yes"/>
      <point x="45" y="1298"/>
      <point x="88" y="1347"/>
      <point x="159" y="1347" type="curve" smooth="yes"/>
      <point x="235" y="1347" type="line" smooth="yes"/>
      <point x="351" y="1347"/>
      <point x="416" y="1382"/>
      <point x="490" y="1422" type="curve" smooth="yes"/>
      <point x="534" y="1445"/>
      <point x="563" y="1454"/>
      <point x="595" y="1454" type="curve" smooth="yes"/>
      <point x="658" y="1454"/>
      <point x="696" y="1418"/>
      <point x="696" y="1345" type="curve" smooth="yes"/>
      <point x="696" y="310" type="line" smooth="yes"/>
      <point x="696" y="259"/>
      <point x="712" y="234"/>
      <point x="744" y="224" type="curve" smooth="yes"/>
      <point x="827" y="199" type="line" smooth="yes"/>
      <point x="878" y="184"/>
      <point x="907" y="149"/>
      <point x="907" y="98" type="curve" smooth="yes"/>
      <point x="907" y="37"/>
      <point x="873" y="0"/>
      <point x="800" y="0" type="curve" smooth="yes"/>
      <point x="141" y="0" type="line" smooth="yes"/>
      <point x="68" y="0"/>
      <point x="34" y="37"/>
      <point x="34" y="98" type="curve" smooth="yes"/>
      <point x="34" y="149"/>
      <point x="63" y="188"/>
      <point x="114" y="200" type="curve" smooth="yes"/>
      <point x="216" y="224" type="line" smooth="yes"/>
      <point x="247" y="232"/>
      <point x="264" y="259"/>
      <point x="264" y="311" type="curve" smooth="yes"/>
      <point x="264" y="1014" type="line" smooth="yes"/>
      <point x="264" y="1101"/>
      <point x="244" y="1123"/>
      <point x="191" y="1123" type="curve" smooth="yes"/>
    </contour>
  </outline>
</glyph>
<glyph name="two" format="2">
  <advance width="1209"/>
  <unicode hex="0032"/>
  <outline>
    <contour>
      <point x="348" y="585" type="curve" smooth="yes"/>
      <point x="134" y="452"/>
      <point x="59" y="317"/>
      <point x="59" y="165" type="curve" smooth="yes"/>
      <point x="59" y="35"/>
      <point x="118" y="-39"/>
      <point x="212" y="-39" type="curve" smooth="yes"/>
      <point x="309" y="-39"/>
      <point x="354" y="19"/>
      <point x="354" y="92" type="curve" smooth="yes"/>
      <point x="354" y="102"/>
      <point x="354" y="110"/>
      <point x="354" y="130" type="curve" smooth="yes"/>
      <point x="354" y="179"/>
      <point x="370" y="197"/>
      <point x="402" y="197" type="curve" smooth="yes"/>
      <point x="428" y="197"/>
      <point x="449" y="170"/>
      <point x="487" y="117" type="curve" smooth="yes"/>
      <point x="556" y="21"/>
      <point x="642" y="-39"/>
      <point x="794" y="-39" type="curve" smooth="yes"/>
      <point x="1004" y="-39"/>
      <point x="1133" y="94"/>
      <point x="1157" y="387" type="curve" smooth="yes"/>
      <point x="1165" y="488"/>
      <point x="1133" y="532"/>
      <point x="1071" y="537" type="curve" smooth="yes"/>
      <point x="1036" y="540"/>
      <point x="1000" y="520"/>
      <point x="984" y="466" type="curve" smooth="yes"/>
      <point x="961" y="383"/>
      <point x="917" y="356"/>
      <point x="864" y="356" type="curve" smooth="yes"/>
      <point x="771" y="356"/>
      <point x="666" y="428"/>
      <point x="537" y="428" type="curve" smooth="yes"/>
      <point x="437" y="428"/>
      <point x="384" y="388"/>
      <point x="335" y="313" type="curve"/>
      <point x="348" y="307" type="line"/>
      <point x="420" y="432"/>
      <point x="506" y="490"/>
      <point x="681" y="554" type="curve" smooth="yes"/>
      <point x="1001" y="664"/>
      <point x="1113" y="802"/>
      <point x="1113" y="1021" type="curve" smooth="yes"/>
      <point x="1113" y="1264"/>
      <point x="954" y="1439"/>
      <point x="600" y="1439" type="curve" smooth="yes"/>
      <point x="241" y="1439"/>
      <point x="79" y="1254"/>
      <point x="79" y="1052" type="curve" smooth="yes"/>
      <point x="79" y="913"/>
      <point x="154" y="832"/>
      <point x="273" y="832" type="curve" smooth="yes"/>
      <point x="397" y="832"/>
      <point x="471" y="909"/>
      <point x="471" y="1028" type="curve" smooth="yes"/>
      <point x="471" y="1132" type="line" smooth="yes"/>
      <point x="471" y="1228"/>
      <point x="493" y="1295"/>
      <point x="565" y="1295" type="curve" smooth="yes"/>
      <point x="632" y="1295"/>
      <point x="662" y="1232"/>
      <point x="662" y="1082" type="curve" smooth="yes"/>
      <point x="662" y="847"/>
      <point x="573" y="723"/>
    </contour>
  </outline>
</glyph>
<glyph name="six" format="2">
  <advance width="1238"/>
  <unicode hex="0036"/>
  <outline>
    <contour>
      <point x="727" y="1439" type="curve" smooth="yes"/>
      <point x="286" y="1439"/>
      <point x="32" y="1137"/>
      <point x="32" y="616" type="curve" smooth="yes"/>
      <point x="32" y="181"/>
      <point x="236" y="-38"/>
      <point x="630" y="-38" type="curve" smooth="yes"/>
      <point x="988" y="-38"/>
      <point x="1212" y="161"/>
      <point x="1212" y="453" type="curve" smooth="yes"/>
      <point x="1212" y="712"/>
      <point x="1048" y="856"/>
      <point x="798" y="856" type="curve" smooth="yes"/>
      <point x="546" y="856"/>
      <point x="348" y="706"/>
      <point x="348" y="537" type="curve"/>
      <point x="452" y="505" type="line"/>
      <point x="452" y="587"/>
      <point x="526" y="647"/>
      <point x="621" y="647" type="curve" smooth="yes"/>
      <point x="712" y="647"/>
      <point x="789" y="569"/>
      <point x="789" y="418" type="curve" smooth="yes"/>
      <point x="789" y="253"/>
      <point x="736" y="163"/>
      <point x="654" y="163" type="curve" smooth="yes"/>
      <point x="569" y="163"/>
      <point x="497" y="277"/>
      <point x="497" y="656" type="curve" smooth="yes"/>
      <point x="497" y="1093"/>
      <point x="569" y="1270"/>
      <point x="654" y="1270" type="curve" smooth="yes"/>
      <point x="710" y="1270"/>
      <point x="730" y="1229"/>
      <point x="730" y="1187" type="curve" smooth="yes"/>
      <point x="730" y="1162" type="line" smooth="yes"/>
      <point x="730" y="1009"/>
      <point x="823" y="925"/>
      <point x="983" y="925" type="curve" smooth="yes"/>
      <point x="1114" y="925"/>
      <point x="1198" y="1001"/>
      <point x="1198" y="1132" type="curve" smooth="yes"/>
      <point x="1198" y="1293"/>
      <point x="1031" y="1439"/>
    </contour>
  </outline>
</glyph>
<glyph name="seven" format="2">
  <advance width="1086"/>
  <unicode hex="0037"/>
  <outline>
    <contour>
      <point x="786" y="1047" type="line"/>
      <point x="600" y="862" type="line" smooth="yes"/>
      <point x="392" y="668"/>
      <point x="272" y="472"/>
      <point x="272" y="273" type="curve" smooth="yes"/>
      <point x="272" y="78"/>
      <point x="386" y="-42"/>
      <point x="559" y="-42" type="curve" smooth="yes"/>
      <point x="749" y="-42"/>
      <point x="848" y="80"/>
      <point x="848" y="220" type="curve" smooth="yes"/>
      <point x="848" y="340"/>
      <point x="727" y="392"/>
      <point x="727" y="544" type="curve" smooth="yes"/>
      <point x="727" y="677"/>
      <point x="788" y="817"/>
      <point x="886" y="928" type="curve" smooth="yes"/>
      <point x="1028" y="1090" type="line" smooth="yes"/>
      <point x="1122" y="1183"/>
      <point x="1119" y="1236"/>
      <point x="1119" y="1286" type="curve" smooth="yes"/>
      <point x="1119" y="1353"/>
      <point x="1066" y="1400"/>
      <point x="982" y="1400" type="curve" smooth="yes"/>
      <point x="190" y="1400" type="line" smooth="yes"/>
      <point x="116" y="1400"/>
      <point x="73" y="1350"/>
      <point x="69" y="1276" type="curve" smooth="yes"/>
      <point x="46" y="880" type="line" smooth="yes"/>
      <point x="43" y="807"/>
      <point x="79" y="768"/>
      <point x="125" y="768" type="curve" smooth="yes"/>
      <point x="178" y="767"/>
      <point x="213" y="805"/>
      <point x="234" y="854" type="curve" smooth="yes"/>
      <point x="268" y="936" type="line" smooth="yes"/>
      <point x="291" y="993"/>
      <point x="331" y="1013"/>
      <point x="390" y="1013" type="curve" smooth="yes"/>
      <point x="855" y="1013" type="line"/>
    </contour>
  </outline>
</glyph>
<glyph name="eight" format="2">
  <advance width="1197"/>
  <unicode hex="0038"/>
  <outline>
    <contour>
      <point x="555" y="-38" type="curve" smooth="yes"/>
      <point x="935" y="-38"/>
      <point x="1146" y="136"/>
      <point x="1146" y="377" type="curve" smooth="yes"/>
      <point x="1146" y="551"/>
      <point x="1021" y="680"/>
      <point x="763" y="768" type="curve" smooth="yes"/>
      <point x="556" y="840"/>
      <point x="461" y="954"/>
      <point x="461" y="1110" type="curve" smooth="yes"/>
      <point x="461" y="1214"/>
      <point x="506" y="1289"/>
      <point x="603" y="1289" type="curve" smooth="yes"/>
      <point x="709" y="1289"/>
      <point x="751" y="1212"/>
      <point x="751" y="1093" type="curve" smooth="yes"/>
      <point x="751" y="962"/>
      <point x="709" y="854"/>
      <point x="647" y="790" type="curve"/>
      <point x="683" y="722" type="line"/>
      <point x="1028" y="726"/>
      <point x="1139" y="902"/>
      <point x="1139" y="1069" type="curve" smooth="yes"/>
      <point x="1139" y="1285"/>
      <point x="949" y="1439"/>
      <point x="654" y="1439" type="curve" smooth="yes"/>
      <point x="247" y="1439"/>
      <point x="70" y="1214"/>
      <point x="70" y="976" type="curve" smooth="yes"/>
      <point x="70" y="784"/>
      <point x="185" y="642"/>
      <point x="464" y="559" type="curve" smooth="yes"/>
      <point x="671" y="496"/>
      <point x="729" y="401"/>
      <point x="729" y="275" type="curve" smooth="yes"/>
      <point x="729" y="168"/>
      <point x="690" y="101"/>
      <point x="603" y="101" type="curve" smooth="yes"/>
      <point x="500" y="101"/>
      <point x="461" y="183"/>
      <point x="461" y="281" type="curve" smooth="yes"/>
      <point x="461" y="381"/>
      <point x="486" y="492"/>
      <point x="539" y="548" type="curve"/>
      <point x="542" y="606" type="line"/>
      <point x="210" y="603"/>
      <point x="64" y="457"/>
      <point x="64" y="274" type="curve" smooth="yes"/>
      <point x="64" y="96"/>
      <point x="203" y="-38"/>
    </contour>
  </outline>
</glyph>
<glyph name="nine" format="2">
  <advance width="1238"/>
  <unicode hex="0039"/>
  <outline>
    <contour>
      <point x="517" y="-39" type="curve" smooth="yes"/>
      <point x="948" y="-39"/>
      <point x="1212" y="216"/>
      <point x="1212" y="710" type="curve" smooth="yes"/>
      <point x="1212" y="1193"/>
      <point x="1008" y="1439"/>
      <point x="614" y="1439" type="curve" smooth="yes"/>
      <point x="257" y="1439"/>
      <point x="32" y="1236"/>
      <point x="32" y="939" type="curve" smooth="yes"/>
      <point x="32" y="674"/>
      <point x="196" y="527"/>
      <point x="446" y="527" type="curve" smooth="yes"/>
      <point x="698" y="527"/>
      <point x="896" y="676"/>
      <point x="896" y="845" type="curve"/>
      <point x="792" y="877" type="line"/>
      <point x="792" y="796"/>
      <point x="718" y="736"/>
      <point x="623" y="736" type="curve" smooth="yes"/>
      <point x="532" y="736"/>
      <point x="456" y="817"/>
      <point x="456" y="974" type="curve" smooth="yes"/>
      <point x="456" y="1145"/>
      <point x="508" y="1239"/>
      <point x="590" y="1239" type="curve" smooth="yes"/>
      <point x="675" y="1239"/>
      <point x="748" y="1123"/>
      <point x="748" y="736" type="curve" smooth="yes"/>
      <point x="748" y="314"/>
      <point x="683" y="132"/>
      <point x="590" y="132" type="curve" smooth="yes"/>
      <point x="534" y="132"/>
      <point x="514" y="173"/>
      <point x="514" y="215" type="curve" smooth="yes"/>
      <point x="514" y="240" type="line" smooth="yes"/>
      <point x="514" y="393"/>
      <point x="421" y="477"/>
      <point x="261" y="477" type="curve" smooth="yes"/>
      <point x="130" y="477"/>
      <point x="46" y="401"/>
      <point x="46" y="270" type="curve" smooth="yes"/>
      <point x="46" y="110"/>
      <point x="204" y="-39"/>
    </contour>
  </outline>
</glyph>
<glyph name="X" format="2">
  <advance width="1407"/>
  <unicode hex="0058"/>
  <outline>
    <contour>
      <point x="1220" y="313" type="curve" smooth="yes"/>
      <point x="661" y="1094" type="line" smooth="yes"/>
      <point x="617" y="1153"/>
      <point x="621" y="1174"/>
      <point x="656" y="1195" type="curve" smooth="yes"/>
      <point x="671" y="1204" type="line" smooth="yes"/>
      <point x="701" y="1221"/>
      <point x="722" y="1251"/>
      <point x="722" y="1302" type="curve" smooth="yes"/>
      <point x="722" y="1362"/>
      <point x="690" y="1400"/>
      <point x="616" y="1400" type="curve" smooth="yes"/>
      <point x="128" y="1400" type="line" smooth="yes"/>
      <point x="55" y="1400"/>
      <point x="21" y="1363"/>
      <point x="21" y="1302" type="curve" smooth="yes"/>
      <point x="21" y="1252"/>
      <point x="38" y="1225"/>
      <point x="85" y="1196" type="curve" smooth="yes"/>
      <point x="126" y="1171"/>
      <point x="137" y="1148"/>
      <point x="164" y="1108" type="curve" smooth="yes"/>
      <point x="699" y="355" type="line" smooth="yes"/>
      <point x="749" y="286"/>
      <point x="813" y="248"/>
      <point x="739" y="208" type="curve" smooth="yes"/>
      <point x="694" y="184"/>
      <point x="670" y="153"/>
      <point x="670" y="98" type="curve" smooth="yes"/>
      <point x="670" y="37"/>
      <point x="704" y="0"/>
      <point x="777" y="0" type="curve" smooth="yes"/>
      <point x="1287" y="0" type="line" smooth="yes"/>
      <point x="1360" y="0"/>
      <point x="1394" y="37"/>
      <point x="1394" y="98" type="curve" smooth="yes"/>
      <point x="1394" y="146"/>
      <point x="1368" y="181"/>
      <point x="1326" y="203" type="curve" smooth="yes"/>
      <point x="1279" y="229"/>
      <point x="1275" y="237"/>
    </contour>
    <contour>
      <point x="840" y="652" type="line"/>
      <point x="1118" y="1048" type="line" smooth="yes"/>
      <point x="1186" y="1143"/>
      <point x="1206" y="1168"/>
      <point x="1234" y="1186" type="curve" smooth="yes"/>
      <point x="1290" y="1223"/>
      <point x="1323" y="1255"/>
      <point x="1323" y="1305" type="curve" smooth="yes"/>
      <point x="1323" y="1365"/>
      <point x="1290" y="1400"/>
      <point x="1216" y="1400" type="curve" smooth="yes"/>
      <point x="975" y="1400" type="line" smooth="yes"/>
      <point x="904" y="1400"/>
      <point x="873" y="1363"/>
      <point x="873" y="1302" type="curve" smooth="yes"/>
      <point x="873" y="1253"/>
      <point x="896" y="1219"/>
      <point x="928" y="1200" type="curve" smooth="yes"/>
      <point x="948" y="1187" type="line" smooth="yes"/>
      <point x="975" y="1170"/>
      <point x="956" y="1154"/>
      <point x="931" y="1116" type="curve" smooth="yes"/>
      <point x="656" y="718" type="line"/>
    </contour>
    <contour>
      <point x="518" y="734" type="line"/>
      <point x="247" y="369" type="line" smooth="yes"/>
      <point x="198" y="306"/>
      <point x="155" y="246"/>
      <point x="90" y="204" type="curve" smooth="yes"/>
      <point x="35" y="170"/>
      <point x="18" y="142"/>
      <point x="18" y="98" type="curve" smooth="yes"/>
      <point x="18" y="37"/>
      <point x="51" y="0"/>
      <point x="125" y="0" type="curve" smooth="yes"/>
      <point x="364" y="0" type="line" smooth="yes"/>
      <point x="432" y="0"/>
      <point x="465" y="38"/>
      <point x="465" y="98" type="curve" smooth="yes"/>
      <point x="465" y="144"/>
      <point x="446" y="172"/>
      <point x="411" y="193" type="curve" smooth="yes"/>
      <point x="400" y="200" type="line" smooth="yes"/>
      <point x="379" y="213"/>
      <point x="378" y="228"/>
      <point x="424" y="287" type="curve" smooth="yes"/>
      <point x="700" y="658" type="line"/>
    </contour>
  </outline>
</glyph>
<glyph name="c" format="2">
  <advance width="936"/>
  <unicode hex="0063"/>
  <anchor x="467" y="961" name="center"/>
  <outline>
    <contour>
      <point x="894" y="629" type="curve" smooth="yes"/>
      <point x="894" y="789"/>
      <point x="748" y="916"/>
      <point x="510" y="916" type="curve" smooth="yes"/>
      <point x="215" y="916"/>
      <point x="30" y="705"/>
      <point x="30" y="419" type="curve" smooth="yes"/>
      <point x="30" y="152"/>
      <point x="231" y="-26"/>
      <point x="492" y="-26" type="curve" smooth="yes"/>
      <point x="735" y="-26"/>
      <point x="900" y="121"/>
      <point x="899" y="287" type="curve" smooth="yes"/>
      <point x="899" y="332"/>
      <point x="882" y="350"/>
      <point x="855" y="351" type="curve" smooth="yes"/>
      <point x="839" y="352"/>
      <point x="825" y="343"/>
      <point x="789" y="316" type="curve" smooth="yes"/>
      <point x="732" y="274"/>
      <point x="684" y="261"/>
      <point x="611" y="261" type="curve" smooth="yes"/>
      <point x="472" y="261"/>
      <point x="362" y="357"/>
      <point x="362" y="551" type="curve" smooth="yes"/>
      <point x="362" y="673"/>
      <point x="412" y="730"/>
      <point x="463" y="730" type="curve" smooth="yes"/>
      <point x="510" y="730"/>
      <point x="542" y="697"/>
      <point x="542" y="644" type="curve" smooth="yes"/>
      <point x="542" y="615" type="line" smooth="yes"/>
      <point x="542" y="529"/>
      <point x="615" y="460"/>
      <point x="732" y="460" type="curve" smooth="yes"/>
      <point x="830" y="460"/>
      <point x="894" y="535"/>
    </contour>
  </outline>
</glyph>
<glyph name="l" format="2">
  <advance width="586"/>
  <unicode hex="006C"/>
  <outline>
    <contour>
      <point x="491" y="1231" type="line" smooth="yes"/>
      <point x="491" y="1280"/>
      <point x="463" y="1316"/>
      <point x="418" y="1316" type="curve" smooth="yes"/>
      <point x="374" y="1316"/>
      <point x="343" y="1305"/>
      <point x="283" y="1280" type="curve" smooth="yes"/>
      <point x="97" y="1203" type="line" smooth="yes"/>
      <point x="48" y="1182"/>
      <point x="27" y="1156"/>
      <point x="27" y="1117" type="curve" smooth="yes"/>
      <point x="27" y="1081"/>
      <point x="44" y="1063"/>
      <point x="71" y="1045" type="curve" smooth="yes"/>
      <point x="78" y="1038" type="line" smooth="yes"/>
      <point x="99" y="1025"/>
      <point x="112" y="1012"/>
      <point x="112" y="956" type="curve" smooth="yes"/>
      <point x="112" y="266" type="line" smooth="yes"/>
      <point x="112" y="202"/>
      <point x="104" y="186"/>
      <point x="90" y="173" type="curve" smooth="yes"/>
      <point x="80" y="164" type="line" smooth="yes"/>
      <point x="52" y="143"/>
      <point x="37" y="119"/>
      <point x="37" y="81" type="curve" smooth="yes"/>
      <point x="37" y="30"/>
      <point x="68" y="0"/>
      <point x="120" y="0" type="curve" smooth="yes"/>
      <point x="483" y="0" type="line" smooth="yes"/>
      <point x="534" y="0"/>
      <point x="566" y="30"/>
      <point x="566" y="81" type="curve" smooth="yes"/>
      <point x="566" y="119"/>
      <point x="550" y="143"/>
      <point x="523" y="164" type="curve" smooth="yes"/>
      <point x="513" y="173" type="line" smooth="yes"/>
      <point x="498" y="186"/>
      <point x="491" y="202"/>
      <point x="491" y="266" type="curve" smooth="yes"/>
    </contour>
  </outline>
</glyph>
<glyph name="o" format="2">
  <advance width="1046"/>
  <unicode hex="006F"/>
  <outline>
    <contour>
      <point x="530" y="916" type="curve" smooth="yes"/>
      <point x="230" y="916"/>
      <point x="30" y="709"/>
      <point x="30" y="454" type="curve" smooth="yes"/>
      <point x="30" y="166"/>
      <point x="223" y="-26"/>
      <point x="515" y="-26" type="curve" smooth="yes"/>
      <point x="814" y="-26"/>
      <point x="1016" y="177"/>
      <point x="1016" y="441" type="curve" smooth="yes"/>
      <point x="1016" y="722"/>
      <point x="825" y="916"/>
    </contour>
    <contour>
      <point x="579" y="174" type="curve" smooth="yes"/>
      <point x="506" y="174"/>
      <point x="407" y="373"/>
      <point x="407" y="615" type="curve" smooth="yes"/>
      <point x="407" y="690"/>
      <point x="435" y="716"/>
      <point x="466" y="716" type="curve" smooth="yes"/>
      <point x="539" y="716"/>
      <point x="638" y="518"/>
      <point x="638" y="276" type="curve" smooth="yes"/>
      <point x="638" y="200"/>
      <point x="611" y="174"/>
    </contour>
  </outline>
</glyph>
<glyph name="w" format="2">
  <advance width="1554"/>
  <unicode hex="0077"/>
  <outline>
    <contour>
      <point x="551" y="-18" type="line" smooth="yes"/>
      <point x="608" y="-18"/>
      <point x="660" y="6"/>
      <point x="692" y="88" type="curve" smooth="yes"/>
      <point x="877" y="560" type="line"/>
      <point x="741" y="667" type="line"/>
      <point x="551" y="129" type="line" smooth="yes"/>
      <point x="649" y="131" type="line"/>
      <point x="497" y="581" type="line" smooth="yes"/>
      <point x="467" y="666"/>
      <point x="457" y="701"/>
      <point x="493" y="715" type="curve" smooth="yes"/>
      <point x="514" y="723" type="line" smooth="yes"/>
      <point x="544" y="736"/>
      <point x="565" y="770"/>
      <point x="565" y="809" type="curve" smooth="yes"/>
      <point x="565" y="857"/>
      <point x="536" y="888"/>
      <point x="482" y="888" type="curve" smooth="yes"/>
      <point x="70" y="888" type="line" smooth="yes"/>
      <point x="17" y="888"/>
      <point x="-13" y="857"/>
      <point x="-13" y="807" type="curve" smooth="yes"/>
      <point x="-13" y="781"/>
      <point x="-3" y="757"/>
      <point x="19" y="736" type="curve" smooth="yes"/>
      <point x="36" y="719" type="line" smooth="yes"/>
      <point x="51" y="703"/>
      <point x="66" y="673"/>
      <point x="78" y="640" type="curve" smooth="yes"/>
      <point x="288" y="99" type="line" smooth="yes"/>
      <point x="321" y="17"/>
      <point x="362" y="-18"/>
      <point x="427" y="-18" type="curve" smooth="yes"/>
    </contour>
    <contour>
      <point x="1143" y="-18" type="line" smooth="yes"/>
      <point x="1199" y="-18"/>
      <point x="1255" y="5"/>
      <point x="1284" y="88" type="curve" smooth="yes"/>
      <point x="1452" y="587" type="line" smooth="yes"/>
      <point x="1472" y="644"/>
      <point x="1495" y="695"/>
      <point x="1523" y="720" type="curve" smooth="yes"/>
      <point x="1530" y="728" type="line" smooth="yes"/>
      <point x="1563" y="754"/>
      <point x="1570" y="774"/>
      <point x="1570" y="807" type="curve" smooth="yes"/>
      <point x="1570" y="857"/>
      <point x="1538" y="888"/>
      <point x="1487" y="888" type="curve" smooth="yes"/>
      <point x="1253" y="888" type="line" smooth="yes"/>
      <point x="1202" y="888"/>
      <point x="1170" y="857"/>
      <point x="1170" y="807" type="curve" smooth="yes"/>
      <point x="1170" y="766"/>
      <point x="1189" y="739"/>
      <point x="1225" y="724" type="curve" smooth="yes"/>
      <point x="1246" y="715" type="line" smooth="yes"/>
      <point x="1291" y="697"/>
      <point x="1294" y="650"/>
      <point x="1268" y="566" type="curve" smooth="yes"/>
      <point x="1142" y="130" type="line" smooth="yes"/>
      <point x="1227" y="132" type="line"/>
      <point x="1086" y="581" type="line" smooth="yes"/>
      <point x="1058" y="666"/>
      <point x="1041" y="698"/>
      <point x="1079" y="716" type="curve" smooth="yes"/>
      <point x="1098" y="724" type="line" smooth="yes"/>
      <point x="1138" y="742"/>
      <point x="1154" y="765"/>
      <point x="1154" y="807" type="curve" smooth="yes"/>
      <point x="1154" y="857"/>
      <point x="1126" y="888"/>
      <point x="1074" y="888" type="curve" smooth="yes"/>
      <point x="676" y="888" type="line" smooth="yes"/>
      <point x="625" y="888"/>
      <point x="593" y="859"/>
      <point x="593" y="809" type="curve" smooth="yes"/>
      <point x="593" y="778"/>
      <point x="604" y="758"/>
      <point x="633" y="730" type="curve" smooth="yes"/>
      <point x="640" y="720" type="line" smooth="yes"/>
      <point x="657" y="702"/>
      <point x="675" y="668"/>
      <point x="685" y="640" type="curve" smooth="yes"/>
      <point x="879" y="99" type="line" smooth="yes"/>
      <point x="909" y="18"/>
      <point x="955" y="-18"/>
      <point x="1019" y="-18" type="curve" smooth="yes"/>
    </contour>
  </outline>
</glyph>
<glyph name="x" format="2">
  <advance width="1048"/>
  <unicode hex="0078"/>
  <outline>
    <contour>
      <point x="339" y="495" type="line"/>
      <point x="232" y="351" type="line" smooth="yes"/>
      <point x="182" y="282"/>
      <point x="140" y="221"/>
      <point x="86" y="188" type="curve" smooth="yes"/>
      <point x="23" y="149"/>
      <point x="9" y="119"/>
      <point x="9" y="81" type="curve" smooth="yes"/>
      <point x="9" y="30"/>
      <point x="40" y="0"/>
      <point x="91" y="0" type="curve" smooth="yes"/>
      <point x="310" y="0" type="line" smooth="yes"/>
      <point x="361" y="0"/>
      <point x="393" y="30"/>
      <point x="393" y="81" type="curve" smooth="yes"/>
      <point x="393" y="117"/>
      <point x="378" y="141"/>
      <point x="355" y="160" type="curve" smooth="yes"/>
      <point x="333" y="179" type="line" smooth="yes"/>
      <point x="305" y="202"/>
      <point x="305" y="232"/>
      <point x="370" y="317" type="curve" smooth="yes"/>
      <point x="428" y="400" type="line"/>
    </contour>
    <contour>
      <point x="591" y="661" type="line" smooth="yes"/>
      <point x="570" y="688"/>
      <point x="563" y="702"/>
      <point x="576" y="721" type="curve" smooth="yes"/>
      <point x="579" y="730" type="line" smooth="yes"/>
      <point x="595" y="751"/>
      <point x="607" y="773"/>
      <point x="607" y="807" type="curve" smooth="yes"/>
      <point x="607" y="857"/>
      <point x="575" y="888"/>
      <point x="524" y="888" type="curve" smooth="yes"/>
      <point x="99" y="888" type="line" smooth="yes"/>
      <point x="47" y="888"/>
      <point x="16" y="857"/>
      <point x="16" y="807" type="curve" smooth="yes"/>
      <point x="16" y="771"/>
      <point x="33" y="743"/>
      <point x="60" y="724" type="curve" smooth="yes"/>
      <point x="84" y="706"/>
      <point x="112" y="684"/>
      <point x="147" y="639" type="curve" smooth="yes"/>
      <point x="322" y="407" type="line"/>
      <point x="343" y="379" type="line"/>
      <point x="475" y="201" type="line" smooth="yes"/>
      <point x="491" y="178"/>
      <point x="498" y="177"/>
      <point x="484" y="163" type="curve" smooth="yes"/>
      <point x="479" y="155" type="line" smooth="yes"/>
      <point x="463" y="141"/>
      <point x="452" y="115"/>
      <point x="452" y="81" type="curve" smooth="yes"/>
      <point x="452" y="30"/>
      <point x="483" y="0"/>
      <point x="535" y="0" type="curve" smooth="yes"/>
      <point x="962" y="0" type="line" smooth="yes"/>
      <point x="1013" y="0"/>
      <point x="1045" y="30"/>
      <point x="1045" y="81" type="curve" smooth="yes"/>
      <point x="1045" y="117"/>
      <point x="1019" y="134"/>
      <point x="997" y="161" type="curve" smooth="yes"/>
      <point x="979" y="185"/>
      <point x="971" y="192"/>
      <point x="936" y="235" type="curve" smooth="yes"/>
      <point x="733" y="486" type="line"/>
      <point x="713" y="511" type="line"/>
    </contour>
    <contour>
      <point x="667" y="362" type="line"/>
      <point x="812" y="539" type="line" smooth="yes"/>
      <point x="896" y="640"/>
      <point x="938" y="682"/>
      <point x="985" y="718" type="curve" smooth="yes"/>
      <point x="1024" y="747"/>
      <point x="1040" y="769"/>
      <point x="1040" y="807" type="curve" smooth="yes"/>
      <point x="1040" y="857"/>
      <point x="1008" y="888"/>
      <point x="956" y="888" type="curve" smooth="yes"/>
      <point x="746" y="888" type="line" smooth="yes"/>
      <point x="695" y="888"/>
      <point x="663" y="857"/>
      <point x="663" y="807" type="curve" smooth="yes"/>
      <point x="663" y="772"/>
      <point x="678" y="751"/>
      <point x="707" y="730" type="curve" smooth="yes"/>
      <point x="716" y="720" type="line" smooth="yes"/>
      <point x="747" y="695"/>
      <point x="750" y="663"/>
      <point x="714" y="619" type="curve" smooth="yes"/>
      <point x="569" y="434" type="line"/>
    </contour>
  </outline>
</glyph>
<glyph name="sterling" format="2">
  <advance width="1198"/>
  <unicode hex="00A3"/>
  <outline>
    <contour>
      <point x="475" y="334" type="line"/>
      <point x="554" y="401"/>
      <point x="575" y="506"/>
      <point x="576" y="628" type="curve" smooth="yes"/>
      <point x="578" y="755"/>
      <point x="562" y="898"/>
      <point x="562" y="1036" type="curve" smooth="yes"/>
      <point x="562" y="1188"/>
      <point x="594" y="1263"/>
      <point x="662" y="1263" type="curve" smooth="yes"/>
      <point x="707" y="1263"/>
      <point x="736" y="1228"/>
      <point x="736" y="1154" type="curve" smooth="yes"/>
      <point x="736" y="1029" type="line" smooth="yes"/>
      <point x="736" y="876"/>
      <point x="829" y="788"/>
      <point x="955" y="788" type="curve" smooth="yes"/>
      <point x="1078" y="788"/>
      <point x="1154" y="870"/>
      <point x="1154" y="1017" type="curve" smooth="yes"/>
      <point x="1154" y="1226"/>
      <point x="1010" y="1380"/>
      <point x="698" y="1380" type="curve" smooth="yes"/>
      <point x="308" y="1380"/>
      <point x="124" y="1200"/>
      <point x="124" y="954" type="curve" smooth="yes"/>
      <point x="124" y="742"/>
      <point x="397" y="603"/>
      <point x="397" y="455" type="curve" smooth="yes"/>
      <point x="397" y="418"/>
      <point x="383" y="381"/>
      <point x="349" y="342" type="curve"/>
    </contour>
    <contour>
      <point x="102" y="616" type="curve" smooth="yes"/>
      <point x="102" y="588"/>
      <point x="125" y="569"/>
      <point x="154" y="569" type="curve" smooth="yes"/>
      <point x="427" y="569" type="line"/>
      <point x="312" y="704" type="line"/>
      <point x="157" y="682" type="line" smooth="yes"/>
      <point x="128" y="677"/>
      <point x="102" y="653"/>
    </contour>
    <contour>
      <point x="41" y="173" type="curve" smooth="yes"/>
      <point x="41" y="47"/>
      <point x="104" y="-38"/>
      <point x="240" y="-38" type="curve" smooth="yes"/>
      <point x="377" y="-38"/>
      <point x="446" y="36"/>
      <point x="447" y="139" type="curve" smooth="yes"/>
      <point x="447" y="181"/>
      <point x="469" y="200"/>
      <point x="489" y="200" type="curve" smooth="yes"/>
      <point x="525" y="200"/>
      <point x="535" y="180"/>
      <point x="553" y="132" type="curve" smooth="yes"/>
      <point x="607" y="4"/>
      <point x="707" y="-38"/>
      <point x="812" y="-38" type="curve" smooth="yes"/>
      <point x="1017" y="-38"/>
      <point x="1153" y="122"/>
      <point x="1152" y="424" type="curve" smooth="yes"/>
      <point x="1152" y="475"/>
      <point x="1124" y="505"/>
      <point x="1091" y="505" type="curve" smooth="yes"/>
      <point x="1054" y="505"/>
      <point x="1020" y="479"/>
      <point x="1003" y="449" type="curve" smooth="yes"/>
      <point x="967" y="388"/>
      <point x="902" y="359"/>
      <point x="788" y="359" type="curve" smooth="yes"/>
      <point x="633" y="359"/>
      <point x="491" y="427"/>
      <point x="300" y="427" type="curve" smooth="yes"/>
      <point x="130" y="427"/>
      <point x="41" y="304"/>
    </contour>
    <contour>
      <point x="518" y="569" type="line"/>
      <point x="852" y="569" type="line" smooth="yes"/>
      <point x="881" y="569"/>
      <point x="900" y="591"/>
      <point x="900" y="626" type="curve" smooth="yes"/>
      <point x="900" y="657"/>
      <point x="881" y="682"/>
      <point x="852" y="682" type="curve" smooth="yes"/>
      <point x="515" y="682" type="line"/>
    </contour>
  </outline>
</glyph>
<glyph name="OE" format="2">
  <advance width="1964"/>
  <unicode hex="0152"/>
  <outline>
    <contour>
      <point x="726" y="1380" type="curve" smooth="yes"/>
      <point x="315" y="1380"/>
      <point x="52" y="1064"/>
      <point x="52" y="629" type="curve" smooth="yes"/>
      <point x="52" y="233"/>
      <point x="290" y="-38"/>
      <point x="726" y="-38" type="curve" smooth="yes"/>
      <point x="899" y="-38"/>
      <point x="999" y="0"/>
      <point x="1097" y="0" type="curve" smooth="yes"/>
      <point x="1547" y="0" type="line" smooth="yes"/>
      <point x="1645" y="0"/>
      <point x="1689" y="-35"/>
      <point x="1751" y="-35" type="curve" smooth="yes"/>
      <point x="1831" y="-35"/>
      <point x="1863" y="10"/>
      <point x="1889" y="107" type="curve" smooth="yes"/>
      <point x="1942" y="310" type="line" smooth="yes"/>
      <point x="1960" y="379"/>
      <point x="1932" y="430"/>
      <point x="1873" y="444" type="curve" smooth="yes"/>
      <point x="1821" y="455"/>
      <point x="1777" y="434"/>
      <point x="1755" y="374" type="curve" smooth="yes"/>
      <point x="1699" y="225"/>
      <point x="1638" y="200"/>
      <point x="1520" y="200" type="curve" smooth="yes"/>
      <point x="1481" y="200" type="line" smooth="yes"/>
      <point x="1391" y="200"/>
      <point x="1358" y="252"/>
      <point x="1358" y="355" type="curve" smooth="yes"/>
      <point x="1358" y="1144" type="line"/>
      <point x="1502" y="1144" type="line" smooth="yes"/>
      <point x="1598" y="1144"/>
      <point x="1657" y="1131"/>
      <point x="1715" y="987" type="curve" smooth="yes"/>
      <point x="1743" y="922"/>
      <point x="1790" y="911"/>
      <point x="1834" y="918" type="curve" smooth="yes"/>
      <point x="1888" y="927"/>
      <point x="1925" y="972"/>
      <point x="1910" y="1025" type="curve" smooth="yes"/>
      <point x="1853" y="1237" type="line" smooth="yes"/>
      <point x="1827" y="1337"/>
      <point x="1796" y="1379"/>
      <point x="1715" y="1379" type="curve" smooth="yes"/>
      <point x="1653" y="1379"/>
      <point x="1610" y="1344"/>
      <point x="1513" y="1344" type="curve" smooth="yes"/>
      <point x="1046" y="1344" type="line" smooth="yes"/>
      <point x="977" y="1344"/>
      <point x="851" y="1380"/>
    </contour>
    <contour>
      <point x="545" y="663" type="curve" smooth="yes"/>
      <point x="545" y="1031"/>
      <point x="649" y="1189"/>
      <point x="795" y="1189" type="curve" smooth="yes"/>
      <point x="884" y="1189"/>
      <point x="935" y="1136"/>
      <point x="935" y="1025" type="curve" smooth="yes"/>
      <point x="935" y="281" type="line" smooth="yes"/>
      <point x="935" y="203"/>
      <point x="889" y="156"/>
      <point x="823" y="156" type="curve" smooth="yes"/>
      <point x="680" y="156"/>
      <point x="545" y="330"/>
    </contour>
    <contour>
      <point x="1157" y="762" type="line"/>
      <point x="1157" y="582" type="line"/>
      <point x="1463" y="582" type="line" smooth="yes"/>
      <point x="1554" y="582"/>
      <point x="1552" y="568"/>
      <point x="1589" y="513" type="curve" smooth="yes"/>
      <point x="1618" y="470"/>
      <point x="1657" y="455"/>
      <point x="1696" y="469" type="curve" smooth="yes"/>
      <point x="1746" y="487"/>
      <point x="1766" y="526"/>
      <point x="1751" y="592" type="curve" smooth="yes"/>
      <point x="1694" y="841" type="line" smooth="yes"/>
      <point x="1683" y="892"/>
      <point x="1652" y="916"/>
      <point x="1608" y="916" type="curve" smooth="yes"/>
      <point x="1570" y="916"/>
      <point x="1538" y="895"/>
      <point x="1526" y="852" type="curve" smooth="yes"/>
      <point x="1507" y="791"/>
      <point x="1516" y="762"/>
      <point x="1452" y="762" type="curve" smooth="yes"/>
    </contour>
  </outline>
</glyph>
<glyph name="endash" format="2">
  <advance width="1023"/>
  <unicode hex="2013"/>
  <outline>
    <contour>
      <point x="32" y="528" type="curve" smooth="yes"/>
      <point x="32" y="455"/>
      <point x="57" y="407"/>
      <point x="115" y="407" type="curve" smooth="yes"/>
      <point x="907" y="407" type="line" smooth="yes"/>
      <point x="966" y="407"/>
      <point x="991" y="455"/>
      <point x="991" y="528" type="curve" smooth="yes"/>
      <point x="991" y="600"/>
      <point x="966" y="649"/>
      <point x="907" y="649" type="curve" smooth="yes"/>
      <point x="115" y="649" type="line" smooth="yes"/>
      <point x="57" y="649"/>
      <point x="32" y="600"/>
    </contour>
  </outline>
</glyph>
<glyph name="emdash" format="2">
  <advance width="1622"/>
  <unicode hex="2014"/>
  <outline>
    <contour>
      <point x="32" y="528" type="curve" smooth="yes"/>
      <point x="32" y="455"/>
      <point x="57" y="407"/>
      <point x="115" y="407" type="curve" smooth="yes"/>
      <point x="1506" y="407" type="line" smooth="yes"/>
      <point x="1564" y="407"/>
      <point x="1590" y="455"/>
      <point x="1590" y="528" type="curve" smooth="yes"/>
      <point x="1590" y="600"/>
      <point x="1564" y="649"/>
      <point x="1506" y="649" type="curve" smooth="yes"/>
      <point x="115" y="649" type="line" smooth="yes"/>
      <point x="57" y="649"/>
      <point x="32" y="600"/>
    </contour>
  </outline>
</glyph>
<glyph name="perthousand" format="2">
  <advance width="2082"/>
  <unicode hex="2030"/>
  <outline>
    <contour>
      <point x="377" y="1382" type="curve" smooth="yes"/>
      <point x="190" y="1382"/>
      <point x="68" y="1247"/>
      <point x="68" y="1033" type="curve" smooth="yes"/>
      <point x="68" y="809"/>
      <point x="178" y="685"/>
      <point x="372" y="685" type="curve" smooth="yes"/>
      <point x="546" y="685"/>
      <point x="671" y="811"/>
      <point x="671" y="1049" type="curve" smooth="yes"/>
      <point x="671" y="1256"/>
      <point x="553" y="1382"/>
    </contour>
    <contour>
      <point x="426" y="1030" type="curve" smooth="yes"/>
      <point x="426" y="849"/>
      <point x="403" y="799"/>
      <point x="372" y="799" type="curve" smooth="yes"/>
      <point x="334" y="799"/>
      <point x="314" y="859"/>
      <point x="314" y="1046" type="curve" smooth="yes"/>
      <point x="314" y="1202"/>
      <point x="333" y="1269"/>
      <point x="371" y="1269" type="curve" smooth="yes"/>
      <point x="405" y="1269"/>
      <point x="426" y="1208"/>
    </contour>
    <contour>
      <point x="1059" y="659" type="curve" smooth="yes"/>
      <point x="872" y="659"/>
      <point x="751" y="523"/>
      <point x="751" y="309" type="curve" smooth="yes"/>
      <point x="751" y="85"/>
      <point x="860" y="-38"/>
      <point x="1053" y="-38" type="curve" smooth="yes"/>
      <point x="1227" y="-38"/>
      <point x="1353" y="87"/>
      <point x="1353" y="325" type="curve" smooth="yes"/>
      <point x="1353" y="532"/>
      <point x="1235" y="659"/>
    </contour>
    <contour>
      <point x="1109" y="306" type="curve" smooth="yes"/>
      <point x="1109" y="125"/>
      <point x="1084" y="75"/>
      <point x="1055" y="75" type="curve" smooth="yes"/>
      <point x="1016" y="75"/>
      <point x="996" y="135"/>
      <point x="996" y="323" type="curve" smooth="yes"/>
      <point x="996" y="478"/>
      <point x="1015" y="545"/>
      <point x="1052" y="545" type="curve" smooth="yes"/>
      <point x="1088" y="545"/>
      <point x="1109" y="483"/>
    </contour>
    <contour>
      <point x="1710" y="659" type="curve" smooth="yes"/>
      <point x="1522" y="659"/>
      <point x="1401" y="523"/>
      <point x="1401" y="309" type="curve" smooth="yes"/>
      <point x="1401" y="85"/>
      <point x="1511" y="-38"/>
      <point x="1704" y="-38" type="curve" smooth="yes"/>
      <point x="1879" y="-38"/>
      <point x="2004" y="87"/>
      <point x="2004" y="325" type="curve" smooth="yes"/>
      <point x="2004" y="532"/>
      <point x="1886" y="659"/>
    </contour>
    <contour>
      <point x="1759" y="306" type="curve" smooth="yes"/>
      <point x="1759" y="125"/>
      <point x="1735" y="75"/>
      <point x="1706" y="75" type="curve" smooth="yes"/>
      <point x="1667" y="75"/>
      <point x="1647" y="135"/>
      <point x="1647" y="323" type="curve" smooth="yes"/>
      <point x="1647" y="478"/>
      <point x="1666" y="545"/>
      <point x="1703" y="545" type="curve" smooth="yes"/>
      <point x="1739" y="545"/>
      <point x="1759" y="483"/>
    </contour>
    <component base="fraction" xScale="0.89" yScale="0.96" xOffset="263"/>
  </outline>
</glyph>
<glyph name="guilsinglleft" format="2">
  <advance width="666"/>
  <unicode hex="2039"/>
  <outline>
    <contour>
      <point x="59" y="471" type="curve" smooth="yes"/>
      <point x="59" y="418"/>
      <point x="82" y="366"/>
      <point x="146" y="324" type="curve" smooth="yes"/>
      <point x="244" y="259"/>
      <point x="334" y="188"/>
      <point x="409" y="86" type="curve" smooth="yes"/>
      <point x="469" y="9"/>
      <point x="525" y="1"/>
      <point x="567" y="32" type="curve" smooth="yes"/>
      <point x="611" y="64"/>
      <point x="623" y="125"/>
      <point x="575" y="206" type="curve" smooth="yes"/>
      <point x="490" y="354"/>
      <point x="348" y="465"/>
      <point x="215" y="514" type="curve"/>
      <point x="215" y="429" type="line"/>
      <point x="348" y="477"/>
      <point x="490" y="588"/>
      <point x="575" y="736" type="curve" smooth="yes"/>
      <point x="623" y="817"/>
      <point x="611" y="878"/>
      <point x="567" y="910" type="curve" smooth="yes"/>
      <point x="525" y="941"/>
      <point x="469" y="933"/>
      <point x="409" y="856" type="curve" smooth="yes"/>
      <point x="334" y="755"/>
      <point x="244" y="684"/>
      <point x="146" y="617" type="curve" smooth="yes"/>
      <point x="82" y="577"/>
      <point x="59" y="524"/>
    </contour>
  </outline>
</glyph>
<glyph name="guarani" format="2">
  <advance width="1332"/>
  <unicode hex="20B2"/>
  <outline>
    <contour>
      <point x="1189" y="94" type="curve" smooth="yes"/>
      <point x="1189" y="423" type="line" smooth="yes"/>
      <point x="1189" y="468"/>
      <point x="1209" y="483"/>
      <point x="1234" y="496" type="curve" smooth="yes"/>
      <point x="1249" y="505" type="line" smooth="yes"/>
      <point x="1287" y="525"/>
      <point x="1307" y="553"/>
      <point x="1307" y="599" type="curve" smooth="yes"/>
      <point x="1307" y="654"/>
      <point x="1276" y="690"/>
      <point x="1203" y="690" type="curve" smooth="yes"/>
      <point x="1013" y="690" type="line" smooth="yes"/>
      <point x="917" y="690"/>
      <point x="879" y="613"/>
      <point x="879" y="501" type="curve" smooth="yes"/>
      <point x="879" y="288" type="line" smooth="yes"/>
      <point x="879" y="192"/>
      <point x="834" y="145"/>
      <point x="690" y="145" type="curve" smooth="yes"/>
      <point x="565" y="145"/>
      <point x="453" y="350"/>
      <point x="453" y="699" type="curve" smooth="yes"/>
      <point x="453" y="1031"/>
      <point x="552" y="1207"/>
      <point x="715" y="1207" type="curve" smooth="yes"/>
      <point x="872" y="1207"/>
      <point x="969" y="1141"/>
      <point x="1008" y="978" type="curve" smooth="yes"/>
      <point x="1030" y="888"/>
      <point x="1070" y="840"/>
      <point x="1142" y="840" type="curve" smooth="yes"/>
      <point x="1198" y="840"/>
      <point x="1218" y="892"/>
      <point x="1218" y="950" type="curve" smooth="yes"/>
      <point x="1218" y="1255" type="line" smooth="yes"/>
      <point x="1218" y="1322"/>
      <point x="1188" y="1350"/>
      <point x="1136" y="1350" type="curve" smooth="yes"/>
      <point x="1056" y="1350"/>
      <point x="1047" y="1277"/>
      <point x="980" y="1277" type="curve" smooth="yes"/>
      <point x="929" y="1277"/>
      <point x="874" y="1354"/>
      <point x="718" y="1354" type="curve" smooth="yes"/>
      <point x="285" y="1354"/>
      <point x="39" y="1063"/>
      <point x="39" y="643" type="curve" smooth="yes"/>
      <point x="39" y="250"/>
      <point x="256" y="-3"/>
      <point x="627" y="-3" type="curve" smooth="yes"/>
      <point x="780" y="-3"/>
      <point x="861" y="65"/>
      <point x="912" y="65" type="curve" smooth="yes"/>
      <point x="972" y="65"/>
      <point x="1007" y="-10"/>
      <point x="1093" y="-10" type="curve" smooth="yes"/>
      <point x="1157" y="-10"/>
      <point x="1189" y="24"/>
    </contour>
    <contour>
      <point x="760" y="679" type="curve" smooth="yes"/>
      <point x="759" y="1085"/>
      <point x="796" y="1305"/>
      <point x="796" y="1444" type="curve" smooth="yes"/>
      <point x="796" y="1510"/>
      <point x="763" y="1543"/>
      <point x="723" y="1543" type="curve" smooth="yes"/>
      <point x="673" y="1543"/>
      <point x="641" y="1508"/>
      <point x="641" y="1448" type="curve" smooth="yes"/>
      <point x="641" y="1305"/>
      <point x="676" y="1084"/>
      <point x="677" y="679" type="curve" smooth="yes"/>
      <point x="678" y="273"/>
      <point x="641" y="53"/>
      <point x="641" y="-86" type="curve" smooth="yes"/>
      <point x="641" y="-153"/>
      <point x="673" y="-185"/>
      <point x="714" y="-185" type="curve" smooth="yes"/>
      <point x="763" y="-185"/>
      <point x="796" y="-151"/>
      <point x="796" y="-90" type="curve" smooth="yes"/>
      <point x="796" y="53"/>
      <point x="761" y="274"/>
    </contour>
  </outline>
</glyph>
<glyph name="greaterequal" format="2">
  <advance width="1064"/>
  <unicode hex="2265"/>
  <outline>
    <contour>
      <point x="679" y="840" type="line"/>
      <point x="679" y="794" type="line"/>
      <point x="214" y="1061" type="line" smooth="yes"/>
      <point x="147" y="1098"/>
      <point x="122" y="1150"/>
      <point x="122" y="1189" type="curve" smooth="yes"/>
      <point x="121" y="1254"/>
      <point x="150" y="1300"/>
      <point x="219" y="1300" type="curve" smooth="yes"/>
      <point x="275" y="1300"/>
      <point x="324" y="1275"/>
      <point x="407" y="1231" type="curve" smooth="yes"/>
      <point x="839" y="992" type="line" smooth="yes"/>
      <point x="910" y="953"/>
      <point x="944" y="890"/>
      <point x="944" y="817" type="curve" smooth="yes"/>
      <point x="944" y="743"/>
      <point x="910" y="681"/>
      <point x="839" y="642" type="curve" smooth="yes"/>
      <point x="407" y="402" type="line" smooth="yes"/>
      <point x="324" y="359"/>
      <point x="275" y="333"/>
      <point x="219" y="333" type="curve" smooth="yes"/>
      <point x="150" y="333"/>
      <point x="121" y="380"/>
      <point x="122" y="444" type="curve" smooth="yes"/>
      <point x="122" y="484"/>
      <point x="147" y="535"/>
      <point x="214" y="572" type="curve" smooth="yes"/>
    </contour>
    <component base="minus" xScale="0.89" yScale="0.96" xOffset="-12" yOffset="-535"/>
  </outline>
</glyph>
<glyph name="W" format="2">
  <advance width="2113"/>
  <outline>
    <contour>
      <point x="978" y="1083" type="line"/>
      <point x="673" y="138" type="line"/>
      <point x="842" y="267" type="line"/>
      <point x="607" y="1057" type="line" smooth="yes"/>
      <point x="582" y="1138"/>
      <point x="593" y="1181"/>
      <point x="628" y="1200" type="curve" smooth="yes"/>
      <point x="645" y="1210" type="line" smooth="yes"/>
      <point x="682" y="1229"/>
      <point x="700" y="1259"/>
      <point x="700" y="1302" type="curve" smooth="yes"/>
      <point x="700" y="1363"/>
      <point x="668" y="1400"/>
      <point x="593" y="1400" type="curve" smooth="yes"/>
      <point x="117" y="1400" type="line" smooth="yes"/>
      <point x="44" y="1400"/>
      <point x="10" y="1363"/>
      <point x="10" y="1302" type="curve" smooth="yes"/>
      <point x="10" y="1259"/>
      <point x="27" y="1223"/>
      <point x="60" y="1204" type="curve" smooth="yes"/>
      <point x="87" y="1188" type="line" smooth="yes"/>
      <point x="127" y="1165"/>
      <point x="143" y="1144"/>
      <point x="163" y="1083" type="curve" smooth="yes"/>
      <point x="429" y="217" type="line" smooth="yes"/>
      <point x="438" y="186"/>
      <point x="448" y="152"/>
      <point x="448" y="135" type="curve" smooth="yes"/>
      <point x="448" y="93" type="line" smooth="yes"/>
      <point x="448" y="31"/>
      <point x="483" y="0"/>
      <point x="528" y="0" type="curve" smooth="yes"/>
      <point x="815" y="0" type="line" smooth="yes"/>
      <point x="859" y="0"/>
      <point x="895" y="31"/>
      <point x="895" y="93" type="curve" smooth="yes"/>
      <point x="895" y="135" type="line" smooth="yes"/>
      <point x="895" y="172"/>
      <point x="900" y="213"/>
      <point x="919" y="268" type="curve" smooth="yes"/>
      <point x="1174" y="1054" type="line"/>
    </contour>
    <contour>
      <point x="1644" y="1302" type="curve" smooth="yes"/>
      <point x="1644" y="1260"/>
      <point x="1664" y="1231"/>
      <point x="1693" y="1214" type="curve" smooth="yes"/>
      <point x="1717" y="1200" type="line" smooth="yes"/>
      <point x="1755" y="1178"/>
      <point x="1759" y="1143"/>
      <point x="1743" y="1087" type="curve" smooth="yes"/>
      <point x="1480" y="138" type="line"/>
      <point x="1633" y="267" type="line"/>
      <point x="1400" y="1057" type="line" smooth="yes"/>
      <point x="1376" y="1135"/>
      <point x="1387" y="1179"/>
      <point x="1415" y="1195" type="curve" smooth="yes"/>
      <point x="1436" y="1206" type="line" smooth="yes"/>
      <point x="1477" y="1229"/>
      <point x="1497" y="1256"/>
      <point x="1497" y="1302" type="curve" smooth="yes"/>
      <point x="1497" y="1363"/>
      <point x="1465" y="1400"/>
      <point x="1390" y="1400" type="curve" smooth="yes"/>
      <point x="948" y="1400" type="line" smooth="yes"/>
      <point x="875" y="1400"/>
      <point x="841" y="1363"/>
      <point x="841" y="1302" type="curve" smooth="yes"/>
      <point x="841" y="1259"/>
      <point x="860" y="1231"/>
      <point x="892" y="1213" type="curve" smooth="yes"/>
      <point x="919" y="1197" type="line" smooth="yes"/>
      <point x="952" y="1178"/>
      <point x="954" y="1149"/>
      <point x="975" y="1083" type="curve" smooth="yes"/>
      <point x="1235" y="217" type="line" smooth="yes"/>
      <point x="1244" y="186"/>
      <point x="1254" y="152"/>
      <point x="1254" y="135" type="curve" smooth="yes"/>
      <point x="1254" y="93" type="line" smooth="yes"/>
      <point x="1254" y="31"/>
      <point x="1290" y="0"/>
      <point x="1334" y="0" type="curve" smooth="yes"/>
      <point x="1621" y="0" type="line" smooth="yes"/>
      <point x="1666" y="0"/>
      <point x="1701" y="31"/>
      <point x="1701" y="93" type="curve" smooth="yes"/>
      <point x="1701" y="135" type="line" smooth="yes"/>
      <point x="1701" y="172"/>
      <point x="1709" y="213"/>
      <point x="1725" y="268" type="curve" smooth="yes"/>
      <point x="1942" y="1060" type="line" smooth="yes"/>
      <point x="1966" y="1145"/>
      <point x="1984" y="1170"/>
      <point x="2023" y="1191" type="curve" smooth="yes"/>
      <point x="2052" y="1207" type="line" smooth="yes"/>
      <point x="2095" y="1231"/>
      <point x="2114" y="1257"/>
      <point x="2114" y="1302" type="curve" smooth="yes"/>
      <point x="2114" y="1362"/>
      <point x="2080" y="1400"/>
      <point x="2007" y="1400" type="curve" smooth="yes"/>
      <point x="1751" y="1400" type="line" smooth="yes"/>
      <point x="1679" y="1400"/>
      <point x="1644" y="1363"/>
    </contour>
  </outline>
</glyph>
<glyph name="ampersand.alt" format="2">
  <advance width="1405"/>
  <outline>
    <contour>
      <point x="660" y="1272" type="curve" smooth="yes"/>
      <point x="599" y="1272"/>
      <point x="560" y="1198"/>
      <point x="560" y="1100" type="curve" smooth="yes"/>
      <point x="560" y="971"/>
      <point x="609" y="871"/>
      <point x="690" y="832" type="curve" smooth="yes"/>
      <point x="818" y="775"/>
      <point x="884" y="725"/>
      <point x="980" y="601" type="curve" smooth="yes"/>
      <point x="1252" y="244" type="line" smooth="yes"/>
      <point x="1277" y="210"/>
      <point x="1307" y="197"/>
      <point x="1334" y="192" type="curve" smooth="yes"/>
      <point x="1384" y="184"/>
      <point x="1415" y="160"/>
      <point x="1415" y="99" type="curve" smooth="yes"/>
      <point x="1415" y="34"/>
      <point x="1379" y="1"/>
      <point x="1315" y="1" type="curve" smooth="yes"/>
      <point x="1026" y="1" type="line" smooth="yes"/>
      <point x="955" y="1"/>
      <point x="905" y="24"/>
      <point x="861" y="80" type="curve" smooth="yes"/>
      <point x="545" y="486" type="line" smooth="yes"/>
      <point x="471" y="580"/>
      <point x="435" y="641"/>
      <point x="340" y="679" type="curve" smooth="yes"/>
      <point x="229" y="729"/>
      <point x="154" y="845"/>
      <point x="154" y="994" type="curve" smooth="yes"/>
      <point x="154" y="1233"/>
      <point x="339" y="1427"/>
      <point x="716" y="1427" type="curve" smooth="yes"/>
      <point x="969" y="1427"/>
      <point x="1151" y="1284"/>
      <point x="1151" y="1076" type="curve" smooth="yes"/>
      <point x="1151" y="895"/>
      <point x="1021" y="768"/>
      <point x="658" y="753" type="curve"/>
      <point x="655" y="814" type="line"/>
      <point x="728" y="839"/>
      <point x="753" y="944"/>
      <point x="753" y="1082" type="curve" smooth="yes"/>
      <point x="753" y="1200"/>
      <point x="709" y="1272"/>
    </contour>
    <contour>
      <point x="497" y="611" type="line"/>
      <point x="452" y="607"/>
      <point x="410" y="487"/>
      <point x="410" y="400" type="curve" smooth="yes"/>
      <point x="410" y="270"/>
      <point x="471" y="188"/>
      <point x="563" y="188" type="curve" smooth="yes"/>
      <point x="639" y="188"/>
      <point x="701" y="217"/>
      <point x="750" y="298" type="curve"/>
      <point x="880" y="212" type="line"/>
      <point x="761" y="46"/>
      <point x="626" y="-30"/>
      <point x="439" y="-30" type="curve" smooth="yes"/>
      <point x="156" y="-30"/>
      <point x="2" y="131"/>
      <point x="2" y="320" type="curve" smooth="yes"/>
      <point x="2" y="529"/>
      <point x="184" y="707"/>
      <point x="497" y="708" type="curve"/>
    </contour>
    <contour>
      <point x="1041" y="433" type="line"/>
      <point x="1065" y="478" type="line" smooth="yes"/>
      <point x="1112" y="542"/>
      <point x="1108" y="581"/>
      <point x="1081" y="606" type="curve" smooth="yes"/>
      <point x="1071" y="614" type="line" smooth="yes"/>
      <point x="1043" y="637"/>
      <point x="1025" y="674"/>
      <point x="1025" y="705" type="curve" smooth="yes"/>
      <point x="1025" y="758"/>
      <point x="1069" y="805"/>
      <point x="1123" y="805" type="curve" smooth="yes"/>
      <point x="1320" y="805" type="line" smooth="yes"/>
      <point x="1387" y="805"/>
      <point x="1420" y="777"/>
      <point x="1420" y="716" type="curve" smooth="yes"/>
      <point x="1420" y="669"/>
      <point x="1408" y="626"/>
      <point x="1357" y="597" type="curve" smooth="yes"/>
      <point x="1315" y="574"/>
      <point x="1286" y="544"/>
      <point x="1242" y="487" type="curve" smooth="yes"/>
      <point x="1130" y="332" type="line"/>
    </contour>
  </outline>
</glyph>
<glyph name="ampersand" format="2">
  <advance width="1693"/>
  <outline>
    <contour>
      <point x="1121" y="-49" type="curve" smooth="yes"/>
      <point x="896" y="-49"/>
      <point x="766" y="36"/>
      <point x="671" y="193" type="curve" smooth="yes"/>
      <point x="545" y="400"/>
      <point x="472" y="566"/>
      <point x="472" y="793" type="curve" smooth="yes"/>
      <point x="472" y="1006"/>
      <point x="614" y="1190"/>
      <point x="857" y="1190" type="curve" smooth="yes"/>
      <point x="1053" y="1190"/>
      <point x="1187" y="1066"/>
      <point x="1187" y="895" type="curve" smooth="yes"/>
      <point x="1187" y="698"/>
      <point x="1031" y="568"/>
      <point x="793" y="565" type="curve"/>
      <point x="774" y="682" type="line"/>
      <point x="843" y="685"/>
      <point x="895" y="786"/>
      <point x="895" y="933" type="curve" smooth="yes"/>
      <point x="895" y="1011"/>
      <point x="875" y="1064"/>
      <point x="843" y="1064" type="curve" smooth="yes"/>
      <point x="802" y="1064"/>
      <point x="775" y="1010"/>
      <point x="775" y="916" type="curve" smooth="yes"/>
      <point x="775" y="807"/>
      <point x="812" y="666"/>
      <point x="936" y="460" type="curve" smooth="yes"/>
      <point x="1079" y="225"/>
      <point x="1162" y="161"/>
      <point x="1267" y="161" type="curve" smooth="yes"/>
      <point x="1413" y="161"/>
      <point x="1540" y="283"/>
      <point x="1540" y="558" type="curve" smooth="yes"/>
      <point x="1540" y="756"/>
      <point x="1459" y="954"/>
      <point x="1302" y="1110" type="curve" smooth="yes"/>
      <point x="1166" y="1246"/>
      <point x="971" y="1336"/>
      <point x="761" y="1336" type="curve" smooth="yes"/>
      <point x="439" y="1336"/>
      <point x="324" y="1217"/>
      <point x="324" y="1095" type="curve" smooth="yes"/>
      <point x="324" y="1004"/>
      <point x="380" y="973"/>
      <point x="380" y="856" type="curve" smooth="yes"/>
      <point x="380" y="758"/>
      <point x="314" y="691"/>
      <point x="219" y="691" type="curve" smooth="yes"/>
      <point x="115" y="691"/>
      <point x="48" y="788"/>
      <point x="48" y="934" type="curve" smooth="yes"/>
      <point x="48" y="1275"/>
      <point x="291" y="1483"/>
      <point x="768" y="1483" type="curve" smooth="yes"/>
      <point x="1015" y="1483"/>
      <point x="1245" y="1390"/>
      <point x="1411" y="1229" type="curve" smooth="yes"/>
      <point x="1589" y="1056"/>
      <point x="1691" y="822"/>
      <point x="1691" y="556" type="curve" smooth="yes"/>
      <point x="1691" y="187"/>
      <point x="1476" y="-49"/>
    </contour>
    <contour>
      <point x="1033" y="243" type="line"/>
      <point x="1119" y="307"/>
      <point x="1155" y="387"/>
      <point x="1155" y="466" type="curve" smooth="yes"/>
      <point x="1155" y="522"/>
      <point x="1153" y="545"/>
      <point x="1153" y="597" type="curve" smooth="yes"/>
      <point x="1153" y="684"/>
      <point x="1220" y="760"/>
      <point x="1306" y="760" type="curve" smooth="yes"/>
      <point x="1375" y="760"/>
      <point x="1431" y="691"/>
      <point x="1431" y="575" type="curve" smooth="yes"/>
      <point x="1431" y="419"/>
      <point x="1333" y="266"/>
      <point x="1073" y="156" type="curve"/>
    </contour>
    <contour>
      <point x="544" y="539" type="line"/>
      <point x="468" y="537"/>
      <point x="422" y="456"/>
      <point x="422" y="334" type="curve" smooth="yes"/>
      <point x="422" y="227"/>
      <point x="479" y="138"/>
      <point x="561" y="138" type="curve" smooth="yes"/>
      <point x="613" y="138"/>
      <point x="648" y="170"/>
      <point x="692" y="204" type="curve"/>
      <point x="750" y="116" type="line"/>
      <point x="699" y="25"/>
      <point x="580" y="-30"/>
      <point x="407" y="-30" type="curve" smooth="yes"/>
      <point x="164" y="-30"/>
      <point x="29" y="77"/>
      <point x="29" y="296" type="curve" smooth="yes"/>
      <point x="29" y="505"/>
      <point x="222" y="661"/>
      <point x="544" y="663" type="curve"/>
    </contour>
  </outline>
</glyph>
<glyph name="comma" format="2">
  <advance width="603"/>
  <outline>
    <contour>
      <point x="279" y="-21" type="curve" smooth="yes"/>
      <point x="303" y="-21" type="line" smooth="yes"/>
      <point x="332" y="-21"/>
      <point x="341" y="-34"/>
      <point x="341" y="-56" type="curve" smooth="yes"/>
      <point x="341" y="-123"/>
      <point x="268" y="-228"/>
      <point x="137" y="-249" type="curve" smooth="yes"/>
      <point x="71" y="-260"/>
      <point x="54" y="-304"/>
      <point x="60" y="-349" type="curve" smooth="yes"/>
      <point x="68" y="-400"/>
      <point x="111" y="-427"/>
      <point x="182" y="-412" type="curve" smooth="yes"/>
      <point x="415" y="-362"/>
      <point x="544" y="-185"/>
      <point x="544" y="96" type="curve" smooth="yes"/>
      <point x="544" y="301"/>
      <point x="440" y="401"/>
      <point x="303" y="401" type="curve" smooth="yes"/>
      <point x="178" y="401"/>
      <point x="84" y="305"/>
      <point x="84" y="177" type="curve" smooth="yes"/>
      <point x="84" y="62"/>
      <point x="146" y="-21"/>
    </contour>
  </outline>
</glyph>
<glyph name="five" format="2">
  <advance width="1142"/>
  <outline>
    <contour>
      <point x="45" y="281" type="curve" smooth="yes"/>
      <point x="45" y="98"/>
      <point x="207" y="-39"/>
      <point x="534" y="-39" type="curve" smooth="yes"/>
      <point x="879" y="-39"/>
      <point x="1106" y="126"/>
      <point x="1106" y="424" type="curve" smooth="yes"/>
      <point x="1106" y="688"/>
      <point x="907" y="859"/>
      <point x="609" y="859" type="curve" smooth="yes"/>
      <point x="442" y="859"/>
      <point x="339" y="824"/>
      <point x="229" y="735" type="curve"/>
      <point x="303" y="709" type="line"/>
      <point x="303" y="1289" type="line"/>
      <point x="178" y="1081" type="line"/>
      <point x="305" y="1019"/>
      <point x="523" y="974"/>
      <point x="705" y="974" type="curve" smooth="yes"/>
      <point x="948" y="974"/>
      <point x="1087" y="1071"/>
      <point x="1121" y="1341" type="curve" smooth="yes"/>
      <point x="1132" y="1430"/>
      <point x="1103" y="1448"/>
      <point x="1076" y="1454" type="curve" smooth="yes"/>
      <point x="1041" y="1461"/>
      <point x="1016" y="1449"/>
      <point x="999" y="1430" type="curve" smooth="yes"/>
      <point x="966" y="1391"/>
      <point x="892" y="1361"/>
      <point x="784" y="1361" type="curve" smooth="yes"/>
      <point x="657" y="1361"/>
      <point x="500" y="1383"/>
      <point x="361" y="1425" type="curve" smooth="yes"/>
      <point x="326" y="1436"/>
      <point x="289" y="1442"/>
      <point x="254" y="1442" type="curve" smooth="yes"/>
      <point x="157" y="1442"/>
      <point x="116" y="1385"/>
      <point x="116" y="1294" type="curve" smooth="yes"/>
      <point x="116" y="666" type="line" smooth="yes"/>
      <point x="116" y="616"/>
      <point x="157" y="574"/>
      <point x="202" y="574" type="curve" smooth="yes"/>
      <point x="244" y="574"/>
      <point x="268" y="582"/>
      <point x="319" y="614" type="curve" smooth="yes"/>
      <point x="358" y="644"/>
      <point x="390" y="652"/>
      <point x="434" y="652" type="curve" smooth="yes"/>
      <point x="567" y="652"/>
      <point x="645" y="552"/>
      <point x="645" y="359" type="curve" smooth="yes"/>
      <point x="645" y="199"/>
      <point x="597" y="105"/>
      <point x="530" y="105" type="curve" smooth="yes"/>
      <point x="479" y="105"/>
      <point x="451" y="154"/>
      <point x="451" y="216" type="curve" smooth="yes"/>
      <point x="451" y="312" type="line" smooth="yes"/>
      <point x="451" y="424"/>
      <point x="363" y="500"/>
      <point x="257" y="500" type="curve" smooth="yes"/>
      <point x="137" y="500"/>
      <point x="45" y="408"/>
    </contour>
  </outline>
</glyph>
<glyph name="four" format="2">
  <advance width="1265"/>
  <outline>
    <contour>
      <point x="596" y="601" type="curve" smooth="yes"/>
      <point x="597" y="314" type="line" smooth="yes"/>
      <point x="597" y="250"/>
      <point x="570" y="216"/>
      <point x="509" y="205" type="curve" smooth="yes"/>
      <point x="461" y="196" type="line" smooth="yes"/>
      <point x="401" y="184"/>
      <point x="367" y="139"/>
      <point x="367" y="92" type="curve" smooth="yes"/>
      <point x="367" y="26"/>
      <point x="394" y="0"/>
      <point x="456" y="0" type="curve" smooth="yes"/>
      <point x="1113" y="0" type="line" smooth="yes"/>
      <point x="1186" y="0"/>
      <point x="1219" y="30"/>
      <point x="1219" y="104" type="curve" smooth="yes"/>
      <point x="1219" y="161"/>
      <point x="1183" y="198"/>
      <point x="1126" y="200" type="curve" smooth="yes"/>
      <point x="1095" y="202" type="line" smooth="yes"/>
      <point x="1042" y="204"/>
      <point x="1015" y="244"/>
      <point x="1015" y="308" type="curve" smooth="yes"/>
      <point x="1013" y="885" type="line" smooth="yes"/>
      <point x="1013" y="940"/>
      <point x="988" y="963"/>
      <point x="953" y="963" type="curve" smooth="yes"/>
      <point x="925" y="963"/>
      <point x="904" y="950"/>
      <point x="859" y="912" type="curve" smooth="yes"/>
      <point x="645" y="726" type="line" smooth="yes"/>
      <point x="613" y="697"/>
      <point x="596" y="655"/>
    </contour>
    <contour>
      <point x="338" y="860" type="curve" smooth="yes"/>
      <point x="88" y="610" type="line" smooth="yes"/>
      <point x="32" y="559"/>
      <point x="4" y="499"/>
      <point x="4" y="456" type="curve" smooth="yes"/>
      <point x="4" y="390"/>
      <point x="43" y="352"/>
      <point x="112" y="352" type="curve" smooth="yes"/>
      <point x="1123" y="352" type="line" smooth="yes"/>
      <point x="1193" y="352"/>
      <point x="1224" y="392"/>
      <point x="1224" y="455" type="curve" smooth="yes"/>
      <point x="1224" y="516"/>
      <point x="1178" y="546"/>
      <point x="1123" y="546" type="curve" smooth="yes"/>
      <point x="153" y="546" type="line"/>
      <point x="176" y="461" type="line"/>
      <point x="721" y="946" type="line" smooth="yes"/>
      <point x="874" y="1076"/>
      <point x="913" y="1166"/>
      <point x="913" y="1244" type="curve" smooth="yes"/>
      <point x="913" y="1378"/>
      <point x="807" y="1471"/>
      <point x="667" y="1471" type="curve" smooth="yes"/>
      <point x="488" y="1471"/>
      <point x="379" y="1352"/>
      <point x="379" y="1230" type="curve" smooth="yes"/>
      <point x="379" y="1139"/>
      <point x="430" y="1111"/>
      <point x="430" y="1026" type="curve" smooth="yes"/>
      <point x="430" y="979"/>
      <point x="414" y="927"/>
    </contour>
  </outline>
</glyph>
<glyph name="h.alt" format="2">
  <advance width="1156"/>
  <outline>
    <contour>
      <point x="460" y="569" type="line" smooth="yes"/>
      <point x="488" y="596" type="line" smooth="yes"/>
      <point x="521" y="631"/>
      <point x="560" y="639"/>
      <point x="594" y="639" type="curve" smooth="yes"/>
      <point x="650" y="639"/>
      <point x="682" y="600"/>
      <point x="682" y="524" type="curve" smooth="yes"/>
      <point x="682" y="266" type="line" smooth="yes"/>
      <point x="682" y="195"/>
      <point x="678" y="177"/>
      <point x="662" y="163" type="curve" smooth="yes"/>
      <point x="650" y="152" type="line" smooth="yes"/>
      <point x="630" y="135"/>
      <point x="618" y="110"/>
      <point x="618" y="81" type="curve" smooth="yes"/>
      <point x="618" y="30"/>
      <point x="646" y="0"/>
      <point x="692" y="0" type="curve" smooth="yes"/>
      <point x="1053" y="0" type="line" smooth="yes"/>
      <point x="1104" y="0"/>
      <point x="1136" y="30"/>
      <point x="1136" y="81" type="curve" smooth="yes"/>
      <point x="1136" y="119"/>
      <point x="1121" y="141"/>
      <point x="1093" y="164" type="curve" smooth="yes"/>
      <point x="1083" y="173" type="line" smooth="yes"/>
      <point x="1069" y="186"/>
      <point x="1061" y="202"/>
      <point x="1061" y="266" type="curve" smooth="yes"/>
      <point x="1061" y="620" type="line" smooth="yes"/>
      <point x="1061" y="796"/>
      <point x="959" y="916"/>
      <point x="807" y="916" type="curve" smooth="yes"/>
      <point x="707" y="916"/>
      <point x="594" y="859"/>
      <point x="431" y="692" type="curve" smooth="yes"/>
      <point x="393" y="651" type="line"/>
    </contour>
    <contour>
      <point x="491" y="1231" type="line" smooth="yes"/>
      <point x="491" y="1280"/>
      <point x="463" y="1316"/>
      <point x="418" y="1316" type="curve" smooth="yes"/>
      <point x="374" y="1316"/>
      <point x="343" y="1305"/>
      <point x="283" y="1280" type="curve" smooth="yes"/>
      <point x="97" y="1203" type="line" smooth="yes"/>
      <point x="48" y="1182"/>
      <point x="27" y="1156"/>
      <point x="27" y="1117" type="curve" smooth="yes"/>
      <point x="27" y="1081"/>
      <point x="44" y="1063"/>
      <point x="71" y="1045" type="curve" smooth="yes"/>
      <point x="78" y="1038" type="line" smooth="yes"/>
      <point x="99" y="1025"/>
      <point x="112" y="1012"/>
      <point x="112" y="956" type="curve" smooth="yes"/>
      <point x="112" y="266" type="line" smooth="yes"/>
      <point x="112" y="202"/>
      <point x="104" y="186"/>
      <point x="90" y="173" type="curve" smooth="yes"/>
      <point x="80" y="164" type="line" smooth="yes"/>
      <point x="52" y="143"/>
      <point x="37" y="119"/>
      <point x="37" y="81" type="curve" smooth="yes"/>
      <point x="37" y="30"/>
      <point x="68" y="0"/>
      <point x="120" y="0" type="curve" smooth="yes"/>
      <point x="481" y="0" type="line" smooth="yes"/>
      <point x="527" y="0"/>
      <point x="555" y="30"/>
      <point x="555" y="81" type="curve" smooth="yes"/>
      <point x="555" y="110"/>
      <point x="543" y="135"/>
      <point x="523" y="152" type="curve" smooth="yes"/>
      <point x="511" y="163" type="line" smooth="yes"/>
      <point x="495" y="177"/>
      <point x="491" y="195"/>
      <point x="491" y="266" type="curve" smooth="yes"/>
    </contour>
  </outline>
</glyph>
<glyph name="question" format="2">
  <advance width="1099"/>
  <outline>
    <contour>
      <point x="353" y="658" type="line" smooth="yes"/>
      <point x="336" y="737"/>
      <point x="358" y="798"/>
      <point x="449" y="848" type="curve" smooth="yes"/>
      <point x="509" y="882" type="line" smooth="yes"/>
      <point x="594" y="933"/>
      <point x="624" y="1000"/>
      <point x="624" y="1133" type="curve" smooth="yes"/>
      <point x="624" y="1239"/>
      <point x="582" y="1302"/>
      <point x="521" y="1302" type="curve" smooth="yes"/>
      <point x="464" y="1302"/>
      <point x="431" y="1270"/>
      <point x="431" y="1212" type="curve" smooth="yes"/>
      <point x="431" y="1140" type="line" smooth="yes"/>
      <point x="431" y="987"/>
      <point x="356" y="902"/>
      <point x="219" y="902" type="curve" smooth="yes"/>
      <point x="103" y="902"/>
      <point x="27" y="976"/>
      <point x="27" y="1104" type="curve" smooth="yes"/>
      <point x="27" y="1306"/>
      <point x="240" y="1474"/>
      <point x="538" y="1474" type="curve" smooth="yes"/>
      <point x="899" y="1474"/>
      <point x="1063" y="1341"/>
      <point x="1063" y="1095" type="curve" smooth="yes"/>
      <point x="1063" y="897"/>
      <point x="975" y="783"/>
      <point x="725" y="735" type="curve" smooth="yes"/>
      <point x="688" y="727" type="line" smooth="yes"/>
      <point x="641" y="718"/>
      <point x="638" y="690"/>
      <point x="629" y="660" type="curve" smooth="yes"/>
      <point x="623" y="634" type="line" smooth="yes"/>
      <point x="588" y="524"/>
      <point x="560" y="482"/>
      <point x="491" y="482" type="curve" smooth="yes"/>
      <point x="420" y="482"/>
      <point x="380" y="531"/>
      <point x="358" y="628" type="curve" smooth="yes"/>
    </contour>
    <component base="period" xScale="0.93" xOffset="177"/>
  </outline>
</glyph>
<glyph name="three" format="2">
  <advance width="1105"/>
  <outline>
    <contour>
      <point x="547" y="722" type="line"/>
      <point x="973" y="1117" type="line" smooth="yes"/>
      <point x="1047" y="1183"/>
      <point x="1080" y="1233"/>
      <point x="1080" y="1288" type="curve" smooth="yes"/>
      <point x="1080" y="1354"/>
      <point x="1035" y="1400"/>
      <point x="963" y="1400" type="curve" smooth="yes"/>
      <point x="227" y="1400" type="line" smooth="yes"/>
      <point x="143" y="1400"/>
      <point x="93" y="1353"/>
      <point x="86" y="1280" type="curve" smooth="yes"/>
      <point x="57" y="943" type="line" smooth="yes"/>
      <point x="53" y="895"/>
      <point x="83" y="853"/>
      <point x="124" y="852" type="curve" smooth="yes"/>
      <point x="172" y="852"/>
      <point x="220" y="895"/>
      <point x="240" y="938" type="curve" smooth="yes"/>
      <point x="259" y="985" type="line" smooth="yes"/>
      <point x="285" y="1044"/>
      <point x="333" y="1072"/>
      <point x="403" y="1072" type="curve" smooth="yes"/>
      <point x="850" y="1072" type="line"/>
      <point x="835" y="1245" type="line"/>
      <point x="420" y="832" type="line" smooth="yes"/>
      <point x="377" y="790"/>
      <point x="345" y="743"/>
      <point x="345" y="687" type="curve" smooth="yes"/>
      <point x="345" y="630"/>
      <point x="384" y="591"/>
      <point x="434" y="591" type="curve" smooth="yes"/>
      <point x="508" y="591" type="line" smooth="yes"/>
      <point x="614" y="591"/>
      <point x="685" y="504"/>
      <point x="685" y="333" type="curve" smooth="yes"/>
      <point x="685" y="184"/>
      <point x="634" y="107"/>
      <point x="559" y="107" type="curve" smooth="yes"/>
      <point x="491" y="107"/>
      <point x="446" y="159"/>
      <point x="446" y="228" type="curve" smooth="yes"/>
      <point x="446" y="300" type="line" smooth="yes"/>
      <point x="446" y="427"/>
      <point x="364" y="511"/>
      <point x="249" y="511" type="curve" smooth="yes"/>
      <point x="120" y="511"/>
      <point x="20" y="426"/>
      <point x="20" y="308" type="curve" smooth="yes"/>
      <point x="20" y="106"/>
      <point x="179" y="-39"/>
      <point x="504" y="-39" type="curve" smooth="yes"/>
      <point x="869" y="-39"/>
      <point x="1092" y="138"/>
      <point x="1092" y="414" type="curve" smooth="yes"/>
      <point x="1092" y="638"/>
      <point x="960" y="795"/>
      <point x="744" y="795" type="curve" smooth="yes"/>
      <point x="656" y="795"/>
      <point x="595" y="787"/>
      <point x="539" y="766" type="curve"/>
    </contour>
  </outline>
</glyph>
<glyph name="v" format="2">
  <advance width="1002"/>
  <outline>
    <contour>
      <point x="565" y="-18" type="line" smooth="yes"/>
      <point x="622" y="-18"/>
      <point x="674" y="6"/>
      <point x="707" y="88" type="curve" smooth="yes"/>
      <point x="900" y="587" type="line" smooth="yes"/>
      <point x="935" y="676"/>
      <point x="951" y="704"/>
      <point x="964" y="715" type="curve" smooth="yes"/>
      <point x="974" y="724" type="line" smooth="yes"/>
      <point x="1008" y="751"/>
      <point x="1018" y="774"/>
      <point x="1018" y="807" type="curve" smooth="yes"/>
      <point x="1018" y="857"/>
      <point x="985" y="888"/>
      <point x="934" y="888" type="curve" smooth="yes"/>
      <point x="701" y="888" type="line" smooth="yes"/>
      <point x="650" y="888"/>
      <point x="617" y="857"/>
      <point x="617" y="807" type="curve" smooth="yes"/>
      <point x="617" y="767"/>
      <point x="635" y="739"/>
      <point x="672" y="724" type="curve" smooth="yes"/>
      <point x="694" y="715" type="line" smooth="yes"/>
      <point x="738" y="697"/>
      <point x="746" y="650"/>
      <point x="716" y="566" type="curve" smooth="yes"/>
      <point x="566" y="132" type="line" smooth="yes"/>
      <point x="658" y="132" type="line"/>
      <point x="501" y="581" type="line" smooth="yes"/>
      <point x="471" y="664"/>
      <point x="483" y="700"/>
      <point x="520" y="715" type="curve" smooth="yes"/>
      <point x="543" y="724" type="line" smooth="yes"/>
      <point x="580" y="739"/>
      <point x="601" y="767"/>
      <point x="601" y="807" type="curve" smooth="yes"/>
      <point x="601" y="857"/>
      <point x="569" y="888"/>
      <point x="518" y="888" type="curve" smooth="yes"/>
      <point x="70" y="888" type="line" smooth="yes"/>
      <point x="19" y="888"/>
      <point x="-13" y="857"/>
      <point x="-13" y="807" type="curve" smooth="yes"/>
      <point x="-13" y="767"/>
      <point x="4" y="745"/>
      <point x="30" y="724" type="curve" smooth="yes"/>
      <point x="40" y="715" type="line" smooth="yes"/>
      <point x="52" y="705"/>
      <point x="67" y="668"/>
      <point x="78" y="640" type="curve" smooth="yes"/>
      <point x="293" y="99" type="line" smooth="yes"/>
      <point x="327" y="20"/>
      <point x="370" y="-18"/>
      <point x="434" y="-18" type="curve" smooth="yes"/>
    </contour>
  </outline>
</glyph>
<glyph name="zero" format="2">
  <advance width="1310"/>
  <outline>
    <contour>
      <point x="675" y="1439" type="curve" smooth="yes"/>
      <point x="284" y="1439"/>
      <point x="32" y="1150"/>
      <point x="32" y="699" type="curve" smooth="yes"/>
      <point x="32" y="223"/>
      <point x="259" y="-39"/>
      <point x="657" y="-39" type="curve" smooth="yes"/>
      <point x="1015" y="-39"/>
      <point x="1279" y="231"/>
      <point x="1279" y="739" type="curve" smooth="yes"/>
      <point x="1279" y="1174"/>
      <point x="1037" y="1439"/>
    </contour>
    <contour>
      <point x="823" y="690" type="curve" smooth="yes"/>
      <point x="823" y="281"/>
      <point x="757" y="132"/>
      <point x="669" y="132" type="curve" smooth="yes"/>
      <point x="560" y="132"/>
      <point x="501" y="307"/>
      <point x="501" y="732" type="curve" smooth="yes"/>
      <point x="501" y="1076"/>
      <point x="556" y="1268"/>
      <point x="663" y="1268" type="curve" smooth="yes"/>
      <point x="764" y="1268"/>
      <point x="823" y="1088"/>
    </contour>
  </outline>
</glyph>
